<svg height="496pt" viewBox="0 0 496 496" width="496pt" xmlns="http://www.w3.org/2000/svg" xmlns:xlink="http://www.w3.org/1999/xlink"><linearGradient id="a" gradientUnits="userSpaceOnUse" x1="248" x2="248" y1="496" y2="0"><stop offset="0" stop-color="#9f2fff"/><stop offset="1" stop-color="#0bb1d3"/></linearGradient><path d="m416 0h-416v288h96v208h400v-256h-80zm-47.832031 240-116.265625-87.535156c1.035156-.832032 2.082031-1.640625 3.066406-2.535156l145.03125-124.515626v214.585938zm-207.3125-90.222656c1.039062.949218 2.152343 1.808594 3.242187 2.6875l-148.097656 111.496094v-238.546876zm10.601562-11.992188-141.855469-121.785156h356.796876l-142.023438 121.9375c-9.976562 9.0625-22.894531 14.0625-36.375 14.0625s-26.398438-5-36.542969-14.214844zm-139.527343 134.214844 146.75-110.488281c9.121093 4.207031 19.082031 6.488281 29.320312 6.488281 10.257812 0 20.238281-2.289062 29.335938-6.480469l104.230468 78.480469h-245.566406v32zm448.070312 208h-368v-224h368zm-16-208h-64v64h64zm-16 48h-32v-32h32zm-224-32h-96v-16h96zm0 32h-96v-16h96zm0 32h-96v-16h96zm176 112h-128v-16h128zm0-32h-128v-16h128zm0-32h-128v-16h128zm0-32h-128v-16h128zm0 0" fill="url(#a)"/></svg>