<svg height="496pt" viewBox="0 0 496 496" width="496pt" xmlns="http://www.w3.org/2000/svg" xmlns:xlink="http://www.w3.org/1999/xlink"><linearGradient id="linear0" gradientUnits="userSpaceOnUse" x1="248" x2="248" y1="496" y2="0"><stop offset="0" stop-color="#9f2fff"/><stop offset="1" stop-color="#0bb1d3"/></linearGradient><path d="m328 144c-57.34375 0-104 46.65625-104 104s46.65625 104 104 104 104-46.65625 104-104-46.65625-104-104-104zm0 192c-48.519531 0-88-39.480469-88-88s39.480469-88 88-88 88 39.480469 88 88-39.480469 88-88 88zm-200 120c0 4.414062-3.585938 8-8 8s-8-3.585938-8-8 3.585938-8 8-8 8 3.585938 8 8zm-128-136h212.6875l-20.6875 20.6875-8-8-91.71875 91.71875c-7.921875 7.921875-12.28125 18.449219-12.28125 29.65625 0 23.121094 18.816406 41.9375 41.9375 41.9375 11.199219 0 21.734375-4.359375 29.65625-12.28125l91.71875-91.71875-8-8 20.777344-20.777344c20.894531 13.089844 45.496094 20.777344 71.910156 20.777344 48.535156 0 91.097656-25.640625 115.167969-64h52.832031v-320h-496zm140.28125 152.40625c-4.898438 4.898438-11.417969 7.59375-18.34375 7.59375-14.304688 0-25.9375-11.632812-25.9375-25.9375 0-6.925781 2.695312-13.445312 7.59375-18.34375l56.40625-56.40625 36.6875 36.6875zm67.71875-67.71875-36.6875-36.6875 12.6875-12.6875 36.6875 36.6875zm16-32-20.6875-20.6875 18.824219-18.824219c6.136719 7.617188 13.070312 14.542969 20.6875 20.6875zm104-4.6875c-66.167969 0-120-53.832031-120-120s53.832031-120 120-120 120 53.832031 120 120-53.832031 120-120 120zm123.792969-64c7.765625-17.105469 12.207031-36.023438 12.207031-56 0-74.992188-61.007812-136-136-136s-136 61.007812-136 136c0 19.976562 4.441406 38.894531 12.207031 56h-188.207031v-224h464v224zm28.207031-288v48h-464v-48zm-432 32h-16v-16h16zm32 0h-16v-16h16zm32 0h-16v-16h16zm160 224h112v16h-112zm16-16h-16v-16h16zm32-16v16h-16v-16zm32 0v16h-16v-16zm16 0h16v16h-16zm-96-32h112v16h-112zm-96 0h16v16h-160v-128h16v112h16v-48h16v48h16v-64h16v64h16v-80h16v80h16v-96h16zm0 0" fill="url(#linear0)"/></svg>