<svg id="_x33_0" enable-background="new 0 0 64 64" height="512" viewBox="0 0 64 64" width="512" xmlns="http://www.w3.org/2000/svg" xmlns:xlink="http://www.w3.org/1999/xlink"><linearGradient id="SVGID_1_" gradientUnits="userSpaceOnUse" x1="31.91" x2="31.91" y1="63" y2="1"><stop offset="0" stop-color="#9f2fff"/><stop offset="1" stop-color="#0bb1d3"/></linearGradient><path d="m54 21c-2.826 0-5.349 1.312-7 3.356v-.356c0-1.654-1.346-3-3-3h-8c-.34 0-.672.033-1 .08v-11.08c0-4.962-4.037-9-9-9-3.245 0-6.086 1.732-7.669 4.314-1.163-2.541-3.723-4.314-6.695-4.314h-2.474c-2.157 0-4.084 1.278-4.935 3.227-1.949.851-3.227 2.778-3.227 4.956 0 1.439.561 2.792 1.578 3.81l1.422 1.421v.586c0 1.824.821 3.457 2.109 4.558-2.623 1.018-4.607 3.349-5.095 6.277l-.195 1.165h16.181v6h13.128c.423.752.943 1.449 1.569 2.045l.32.305c.098 1.686.89 3.186 2.099 4.216-.437.17-.858.377-1.26.619-1.651-1.945-4.11-3.185-6.856-3.185-3.193 0-5.996 1.676-7.594 4.19-1.085-2.464-3.546-4.19-6.406-4.19h-4c-3.859 0-7 3.141-7 7v.752c0 .937.15 1.861.446 2.748.447 1.343 1.226 2.569 2.251 3.545l.32.305c.098 1.682.886 3.178 2.091 4.208-2.623 1.018-4.607 3.349-5.095 6.278l-.194 1.164h34.181v-10h12v-6h16v-17c0-4.962-4.037-9-9-9zm0 2c3.859 0 7 3.14 7 7v11.711c-.849-.946-1.91-1.687-3.109-2.152 1.289-1.102 2.109-2.735 2.109-4.559v-3.266c0-1.483-1.107-2.76-2.575-2.969l-2.313-.331c-1.205-.172-2.112-1.218-2.112-2.434v-1h-2v1c0 .501.085.987.242 1.442-1.934.724-3.242 2.575-3.242 4.681v2.877c0 1.824.821 3.457 2.109 4.558-1.198.465-2.259 1.206-3.109 2.152v-11.71c0-3.86 3.141-7 7-7zm-12.109 16.558c1.205-1.03 1.993-2.527 2.091-4.208l.32-.305c.248-.236.48-.488.697-.751v7.417c-.848-.946-1.909-1.687-3.108-2.153zm12.109-.558c-2.206 0-4-1.794-4-4v-2.877c0-1.379.935-2.576 2.273-2.91l.082-.021c.657.642 1.514 1.085 2.473 1.222l2.313.331c.49.069.859.495.859.989v3.266c0 2.206-1.794 4-4 4zm.917 2c2.623 0 4.888 1.627 5.778 4h-13.39c.89-2.373 3.154-4 5.778-4zm-25.232-16h-10.38c.89-2.373 3.155-4 5.777-4h1.834c1.653 0 3.227.676 4.378 1.832-.667.609-1.215 1.343-1.609 2.168zm-3.685-6c-2.206 0-4-1.794-4-4v-2.877c0-1.379.935-2.576 2.273-2.91l.082-.021c.657.642 1.514 1.085 2.473 1.222l2.313.331c.49.069.859.495.859.989v3.266c0 2.206-1.794 4-4 4zm0-16c3.859 0 7 3.14 7 7v11.685c-.007.003-.014.007-.02.01-.858-.946-1.922-1.67-3.097-2.128 1.293-1.102 2.117-2.739 2.117-4.567v-3.266c0-1.483-1.107-2.76-2.575-2.969l-2.313-.331c-1.205-.172-2.112-1.218-2.112-2.434v-1h-2v1c0 .501.085.987.242 1.442-1.934.724-3.242 2.575-3.242 4.681v2.877c0 1.824.821 3.457 2.109 4.558-1.198.465-2.259 1.206-3.109 2.152v-11.71c0-3.86 3.141-7 7-7zm-21.961 8.624-.046-.046c-.64-.64-.993-1.49-.993-2.416 0-1.46.931-2.752 2.316-3.213l.474-.158.158-.474c.463-1.386 1.754-2.317 3.214-2.317h2.474c2.958 0 5.364 2.406 5.364 5.364 0 1.141-.367 2.219-1.023 3.126-.115-1.376-1.167-2.527-2.552-2.724l-2.313-.331c-1.205-.173-2.112-1.219-2.112-2.435v-1h-2v1c0 .501.085.987.242 1.442-1.779.665-3.014 2.288-3.203 4.182zm1.961.499c0-1.379.935-2.576 2.273-2.91l.082-.021c.657.642 1.514 1.085 2.473 1.222l2.313.331c.49.069.859.495.859.989v3.266c0 2.206-1.794 4-4 4s-4-1.794-4-4zm-2.702 12.877c.889-2.375 3.161-4 5.785-4h1.834c2.624 0 4.896 1.625 5.785 4zm10.591-5.44c1.29-1.101 2.111-2.735 2.111-4.56v-.586l.843-.843c.056-.056.104-.116.157-.173v8.31c-.849-.946-1.913-1.683-3.111-2.148zm5.111 7.44h10.08c-.047.328-.08.66-.08 1v.752c0 .764.126 1.514.323 2.248h-10.323zm13 5.123v.137c-.27-.438-.494-.904-.657-1.393-.228-.682-.343-1.393-.343-2.115v-.752c0-2.757 2.243-5 5-5h8c.552 0 1 .449 1 1v4.752c0 .721-.115 1.433-.343 2.115-.163.489-.387.956-.657 1.393v-.526c0-1.483-1.107-2.76-2.575-2.969l-2.313-.331c-1.205-.172-2.112-1.218-2.112-2.434v-1h-2v1c0 .501.085.987.242 1.442-1.934.724-3.242 2.575-3.242 4.681zm2 0c0-1.379.935-2.576 2.273-2.91l.082-.021c.657.642 1.514 1.085 2.473 1.222l2.313.331c.49.069.859.495.859.989v3.266c0 2.206-1.794 4-4 4s-4-1.794-4-4zm3.083 8.877h1.834c2.623 0 4.888 1.627 5.778 4h-9.754c-.125-1.126-.46-2.187-.963-3.149.94-.547 2.012-.851 3.105-.851zm-11.083-2c3.859 0 7 3.141 7 7v11.711c-.849-.946-1.91-1.687-3.109-2.152 1.289-1.102 2.109-2.735 2.109-4.559v-3.266c0-1.483-1.107-2.76-2.575-2.97l-2.313-.331c-1.205-.171-2.112-1.217-2.112-2.433v-1h-2v1c0 .501.085.987.242 1.441-1.934.725-3.242 2.576-3.242 4.682v2.877c0 1.824.821 3.457 2.109 4.558-1.198.465-2.259 1.206-3.109 2.152v-11.71c0-3.859 3.141-7 7-7zm0 16c-2.206 0-4-1.794-4-4v-2.877c0-1.379.935-2.576 2.271-2.91l.084-.021c.657.642 1.513 1.085 2.473 1.223l2.313.331c.49.068.859.494.859.988v3.266c0 2.206-1.794 4-4 4zm.917 2c2.623 0 4.888 1.627 5.778 4h-13.39c.89-2.373 3.154-4 5.778-4zm-22.917-8.877v.137c-.27-.438-.494-.904-.657-1.393-.228-.682-.343-1.393-.343-2.115v-.752c0-2.757 2.243-5 5-5h4c2.757 0 5 2.243 5 5v.752c0 .722-.115 1.433-.343 2.115-.163.489-.387.956-.657 1.393v-.526c0-1.483-1.107-2.76-2.575-2.97l-2.313-.331c-1.205-.171-2.112-1.217-2.112-2.433v-1h-2v1c0 .501.085.987.242 1.441-1.934.725-3.242 2.576-3.242 4.682zm2 0c0-1.379.935-2.576 2.271-2.91l.084-.021c.657.642 1.513 1.085 2.473 1.223l2.313.331c.49.068.859.494.859.988v3.266c0 2.206-1.794 4-4 4s-4-1.794-4-4zm-2.702 12.877c.889-2.375 3.161-4 5.785-4h1.834c2.624 0 4.896 1.625 5.785 4zm10.588-5.437c1.208-1.03 1.999-2.529 2.097-4.213l.32-.305c.248-.236.48-.488.697-.751v7.405c-.849-.943-1.918-1.671-3.114-2.136zm31.114-4.563h-10v-4h10z" fill="url(#SVGID_1_)"/></svg>