<?xml version="1.0" encoding="iso-8859-1"?>
<!-- Generator: Adobe Illustrator 22.1.0, SVG Export Plug-In . SVG Version: 6.00 Build 0)  -->
<svg xmlns="http://www.w3.org/2000/svg" xmlns:xlink="http://www.w3.org/1999/xlink" version="1.1" id="Layer_1_1_" x="0px" y="0px" viewBox="0 0 64 64" style="enable-background:new 0 0 64 64;" xml:space="preserve" width="512" height="512">
<linearGradient id="SVGID_1_" gradientUnits="userSpaceOnUse" x1="32" y1="63" x2="32" y2="1">
	<stop offset="0" style="stop-color:#9F2FFF"/>
	<stop offset="1" style="stop-color:#0BB1D3"/>
</linearGradient>
<path style="fill:url(#SVGID_1_);" d="M58,53H35v2H16.236l-2-1H5v8h9.236l2-1H35v2h23c2.757,0,5-2.243,5-5S60.757,53,58,53z   M15.764,59l-2,1H7v-4h6.764l2,1H35v2H15.764z M37,55h16v6H41v-4h-2v4h-2V55z M58,61h-3v-6h3c1.654,0,3,1.346,3,3S59.654,61,58,61z   M62.618,7l-0.724-1.447C60.511,2.787,57.553,1,54.359,1c-2.503,0-4.854,1.064-6.448,2.919C47.321,4.606,46.484,5,45.615,5H5  C2.794,5,1,6.794,1,9s1.794,4,4,4h40.615c0.869,0,1.706,0.394,2.296,1.081C49.505,15.936,51.855,17,54.359,17  c3.194,0,6.152-1.787,7.536-4.553L62.618,11h-7.083l-1.333-2l1.333-2H62.618z M51.798,9l2.667,4h4.621c-1.19,1.249-2.906,2-4.727,2  c-1.92,0-3.717-0.81-4.931-2.223C48.458,11.647,47.068,11,45.615,11H5c-1.103,0-2-0.897-2-2s0.897-2,2-2h40.615  c1.453,0,2.843-0.647,3.813-1.777C50.642,3.81,52.439,3,54.359,3c1.82,0,3.537,0.751,4.727,2h-4.621L51.798,9z M25.09,38.763  l-1.535,1.282C21.908,38.072,21,35.57,21,33c0-6.065,4.935-11,11-11c2.57,0,5.072,0.908,7.045,2.555l-1.282,1.535  C36.149,24.742,34.103,24,32,24c-4.962,0-9,4.038-9,9C23,35.103,23.742,37.149,25.09,38.763z M40.445,25.955  C42.093,27.928,43,30.43,43,33c0,6.065-4.935,11-11,11c-2.57,0-5.072-0.908-7.045-2.555l1.282-1.535C27.851,41.258,29.897,42,32,42  c4.962,0,9-4.038,9-9c0-2.102-0.742-4.148-2.09-5.763L40.445,25.955z M50,36.82v-7.64l-2.613-0.523  c-0.34-1.207-0.822-2.368-1.438-3.464l1.479-2.22l-5.402-5.402l-2.22,1.479c-1.096-0.615-2.257-1.097-3.464-1.438L35.82,15h-7.64  l-0.523,2.613c-1.207,0.34-2.368,0.822-3.464,1.438l-2.22-1.479l-5.402,5.402l1.479,2.22c-0.615,1.096-1.097,2.257-1.438,3.464  L14,29.18v7.64l2.613,0.523c0.34,1.207,0.822,2.368,1.438,3.464l-1.479,2.22l5.402,5.402l2.22-1.479  c1.096,0.615,2.257,1.097,3.464,1.438L28.18,51h7.64l0.523-2.613c1.207-0.34,2.368-0.822,3.464-1.438l2.22,1.479l5.402-5.402  l-1.479-2.22c0.615-1.096,1.097-2.257,1.438-3.464L50,36.82z M45.752,35.63l-0.148,0.623c-0.342,1.436-0.91,2.803-1.686,4.063  l-0.336,0.546l1.273,1.91l-3.083,3.083l-1.91-1.273l-0.546,0.336c-1.261,0.776-2.628,1.344-4.063,1.686l-0.623,0.148L34.18,49h-4.36  l-0.45-2.248l-0.623-0.148c-1.436-0.342-2.803-0.91-4.063-1.686l-0.546-0.336l-1.91,1.273l-3.083-3.083l1.273-1.91l-0.336-0.546  c-0.776-1.261-1.344-2.628-1.686-4.063l-0.148-0.623L16,35.18v-4.36l2.248-0.45l0.148-0.623c0.342-1.436,0.91-2.803,1.686-4.063  l0.336-0.546l-1.273-1.91l3.083-3.083l1.91,1.273l0.546-0.336c1.261-0.776,2.628-1.344,4.063-1.686l0.623-0.148L29.82,17h4.36  l0.45,2.248l0.623,0.148c1.436,0.342,2.803,0.91,4.063,1.686l0.546,0.336l1.91-1.273l3.083,3.083l-1.273,1.91l0.336,0.546  c0.776,1.261,1.344,2.628,1.686,4.063l0.148,0.623L48,30.82v4.36L45.752,35.63z M60,24c0-2.757-2.243-5-5-5s-5,2.243-5,5  s2.243,5,5,5c0.223,0,0.435-0.037,0.65-0.066C55.878,30.272,56,31.635,56,33c0,6.577-2.608,12.714-7.345,17.281l1.388,1.439  C55.174,46.774,58,40.125,58,33c0-1.588-0.152-3.176-0.437-4.73C59.016,27.395,60,25.817,60,24z M55,27c-1.654,0-3-1.346-3-3  s1.346-3,3-3s3,1.346,3,3S56.654,27,55,27z M12,52c2.757,0,5-2.243,5-5s-2.243-5-5-5c-0.737,0-1.431,0.17-2.062,0.457  C8.654,39.472,8,36.297,8,33c0-6.075,2.274-11.87,6.403-16.32l-1.466-1.36C8.463,20.14,6,26.419,6,33  c0,3.729,0.778,7.314,2.296,10.672C7.499,44.558,7,45.718,7,47C7,49.757,9.243,52,12,52z M15,47c0,1.654-1.346,3-3,3s-3-1.346-3-3  s1.346-3,3-3S15,45.346,15,47z"/>
</svg>
