<svg id="Layer_3" enable-background="new 0 0 64 64" height="512" viewBox="0 0 64 64" width="512" xmlns="http://www.w3.org/2000/svg" xmlns:xlink="http://www.w3.org/1999/xlink"><linearGradient id="SVGID_1_" gradientUnits="userSpaceOnUse" x1="32" x2="32" y1="63" y2="1"><stop offset="0" stop-color="#9f2fff"/><stop offset="1" stop-color="#0bb1d3"/></linearGradient><path d="m25 7h-2v-2h2zm-4-2h-8v2h8zm-6 54h8v-2h-8zm14 0h2v-2h-2zm-22 0h2v-2h-2zm56-47v20c0 1.654-1.346 3-3 3h-7v9c0 1.654-1.346 3-3 3h-13v11c0 2.757-2.243 5-5 5h-26c-2.757 0-5-2.243-5-5v-52c0-2.757 2.243-5 5-5h26c2.757 0 5 2.243 5 5v3h23c1.654 0 3 1.346 3 3zm-60-6v3h25 2 5v-3c0-1.654-1.346-3-3-3h-26c-1.654 0-3 1.346-3 3zm22 21h-8v2h8zm0-4h-7c-.551 0-1 .449-1 1v1h8zm0-8h-18v34h24v-2h-13c-1.654 0-3-1.346-3-3v-20c0-1.654 1.346-3 3-3h7zm10 43v-3h-32v3c0 1.654 1.346 3 3 3h26c1.654 0 3-1.346 3-3zm0-11h-2v4h-28v-38h20v-1c0-.352.072-.686.184-1h-22.184v42h32zm16-12h-23c-1.654 0-3-1.346-3-3v-1h-8v13c0 .551.449 1 1 1h32c.551 0 1-.449 1-1zm10-23c0-.551-.449-1-1-1h-30-2c-.551 0-1 .449-1 1v20c0 .551.449 1 1 1h32c.551 0 1-.449 1-1zm-2 15c0 2.206-1.794 4-4 4-.731 0-1.407-.211-1.997-.555-.609.357-1.296.555-2.003.555-2.206 0-4-1.794-4-4s1.794-4 4-4c.707 0 1.394.198 2.003.555.59-.344 1.266-.555 1.997-.555 2.206 0 4 1.794 4 4zm-8 2c.19 0 .358-.032.515-.076-.318-.573-.515-1.223-.515-1.924s.197-1.351.515-1.924c-.157-.044-.325-.076-.515-.076-1.103 0-2 .897-2 2s.897 2 2 2zm6-2c0-1.103-.897-2-2-2s-2 .897-2 2 .897 2 2 2 2-.897 2-2zm-10 14h-10v2h10zm2-4h-12v2h12zm-22 0c1.103 0 2 .897 2 2v2c0 1.103-.897 2-2 2h-6c-1.103 0-2-.897-2-2v-2c0-1.103.897-2 2-2zm.001 4-.001-2h-6v2zm1.999-20v-6c0-1.103.897-2 2-2h6c1.103 0 2 .897 2 2v6c0 1.103-.897 2-2 2h-6c-1.103 0-2-.897-2-2zm2 0h2v-2h-2zm0-6v2h4v4h2.001l-.001-6zm28 0v2c0 1.103-.897 2-2 2h-10c-1.103 0-2-.897-2-2v-2c0-1.103.897-2 2-2h10c1.103 0 2 .897 2 2zm-8 0v2h2v-2zm-4 2h2v-2h-2zm10.001 0-.001-2h-2v2zm-28.001 14h2v-2h-2zm4 0h2v-2h-2zm4 0h2v-2h-2zm-8-4h12v-2h-12zm-18-8h4v-2h-6v11h2zm0 11h-2v2h2zm0 4h-2v2h2z" fill="url(#SVGID_1_)"/></svg>