<svg id="Layer_3" enable-background="new 0 0 64 64" height="512" viewBox="0 0 64 64" width="512" xmlns="http://www.w3.org/2000/svg" xmlns:xlink="http://www.w3.org/1999/xlink"><linearGradient id="SVGID_1_" gradientUnits="userSpaceOnUse" x1="32" x2="32" y1="63" y2="1"><stop offset="0" stop-color="#9f2fff"/><stop offset="1" stop-color="#0bb1d3"/></linearGradient><path d="m42.646 23.677-1.291-1.527 2-1.692 1.291 1.527zm6.999-5.921c.861-.729 1.355-1.796 1.355-2.925 0-2.112-1.719-3.831-3.831-3.831h-.169v2h.169c1.01 0 1.831.821 1.831 1.831 0 .541-.236 1.05-.647 1.399l-2.998 2.537 1.291 1.526zm-22.645-2.924c0-4.319 3.513-7.832 7.831-7.832h.339c2.092 0 4.059.814 5.538 2.294l.292.292.292-.292c1.479-1.48 3.446-2.294 5.538-2.294h.339c4.318 0 7.831 3.513 7.831 7.832 0 2.308-1.011 4.487-2.773 5.979l-11.227 9.499-11.227-9.5c-1.762-1.491-2.773-3.67-2.773-5.978zm2 0c0 1.719.753 3.341 2.064 4.452l9.936 8.406 9.936-8.406c1.311-1.111 2.064-2.734 2.064-4.452 0-3.216-2.616-5.832-5.831-5.832h-.339c-1.558 0-3.022.606-4.124 1.708l-1.706 1.706-1.706-1.706c-1.102-1.102-2.566-1.708-4.124-1.708h-.339c-3.215 0-5.831 2.616-5.831 5.832zm-28 32.168v-21c0-3.86 3.141-7 7-7h11v-11c0-3.86 3.141-7 7-7h30c3.859 0 7 3.14 7 7v21c0 3.86-3.141 7-7 7h-3v6.657c0 1.292-1.051 2.343-2.343 2.343-.728 0-1.401-.33-1.85-.904l-3.807-4.895v7.799c0 3.86-3.141 7-7 7h-16.511l-6.297 8.095c-.448.575-1.122.905-1.849.905-1.292 0-2.343-1.051-2.343-2.343v-6.657h-3c-3.859 0-7-3.14-7-7zm20-18c0 2.757 2.243 5 5 5h17.489l6.896 8.868c.182.233.615.084.614-.211v-8.657h5c2.757 0 5-2.243 5-5v-21c0-2.757-2.243-5-5-5h-29.999c-2.757 0-5 2.243-5 5zm-2 0v-1.706c-.589-.195-1.202-.294-1.83-.294h-.339c-3.215 0-5.831 2.616-5.831 5.832 0 1.719.753 3.341 2.065 4.452l9.935 8.406 9.936-8.406c.438-.371.811-.806 1.12-1.284h-8.056c-3.859 0-7-3.14-7-7zm-16 18c0 2.757 2.243 5 5 5h5v8.657c0 .296.432.447.614.21l6.897-8.867h17.489c2.757 0 5-2.243 5-5v-10.371l-.489-.629h-6.198c-.478 1.078-1.181 2.044-2.086 2.81l-11.227 9.5-11.227-9.5c-1.762-1.491-2.773-3.67-2.773-5.978 0-4.319 3.513-7.832 7.831-7.832h.339c.623 0 1.234.08 1.83.223v-4.223h-11c-2.757 0-5 2.243-5 5zm23-15h4v-2h-4c-.552 0-1-.449-1-1v-8h-2v8c0 1.654 1.346 3 3 3zm15 6h-2v2h2zm0 9v-5h-2v5c0 .551-.448 1-1 1h-4v2h4c1.654 0 3-1.346 3-3zm-27-36c1.654 0 3 1.346 3 3s-1.346 3-3 3-3-1.346-3-3 1.346-3 3-3zm0 2c-.552 0-1 .449-1 1s.448 1 1 1 1-.449 1-1-.448-1-1-1zm0-6c-3.859 0-7 3.14-7 7h2c0-2.757 2.243-5 5-5zm0-2v-2c-6.065 0-11 4.935-11 11h2c0-4.962 4.037-9 9-9zm39 45c0 1.654-1.346 3-3 3s-3-1.346-3-3 1.346-3 3-3 3 1.346 3 3zm-2 0c0-.551-.448-1-1-1s-1 .449-1 1 .448 1 1 1 1-.449 1-1zm-1 7c3.859 0 7-3.14 7-7h-2c0 2.757-2.243 5-5 5zm11-7h-2c0 4.962-4.037 9-9 9v2c6.065 0 11-4.935 11-11zm-36-33h-2v2h2zm0-4h-2v2h2zm-18 32h-2v2h2zm0-4h-2v2h2zm0-4h-2v2h2z" fill="url(#SVGID_1_)"/></svg>