<svg id="Layer_3" enable-background="new 0 0 64 64" height="512" viewBox="0 0 64 64" width="512" xmlns="http://www.w3.org/2000/svg" xmlns:xlink="http://www.w3.org/1999/xlink"><linearGradient id="SVGID_1_" gradientUnits="userSpaceOnUse" x1="32" x2="32" y1="63" y2="1"><stop offset="0" stop-color="#9f2fff"/><stop offset="1" stop-color="#0bb1d3"/></linearGradient><path d="m19.745 30.422c.459-.648.908-1.306 1.345-1.971l1.672 1.099c-.45.685-.912 1.361-1.385 2.029zm8.363-10.577.65-1.431-1.82-.828-.65 1.431c-1.328 2.922-2.863 5.764-4.562 8.448l1.689 1.069c1.749-2.761 3.328-5.684 4.693-8.689zm13.875 14.867.813-.37-.827-1.821-.813.37c-.341.155-.681.312-1.019.473l.856 1.808c.329-.156.658-.309.99-.46zm4.455-2.025-.827-1.82-1.821.828.827 1.82zm-7.216 3.353-.904-1.784c-.604.306-1.203.622-1.796.944l.956 1.757c.577-.314 1.158-.62 1.744-.917zm-24.485 14.96c-2.612 0-4.737-2.125-4.737-4.737 0-.954.286-1.877.826-2.67l-1.653-1.126c-.767 1.126-1.173 2.439-1.173 3.796 0 3.715 3.022 6.737 6.737 6.737.103 0 .205-.002.307-.007l-.089-1.998zm7.909-33.639 4.156-9.144-.681-.681c-.723-.724-1.121-1.685-1.121-2.707 0-2.112 1.717-3.829 3.829-3.829 1.022 0 1.984.398 2.707 1.122l9.485 9.485 5.063-3.938 7.249 7.249-3.938 5.063 9.485 9.485c.722.722 1.12 1.683 1.12 2.705 0 2.112-1.717 3.829-3.829 3.829-1.022 0-1.984-.398-2.707-1.122l-.681-.681-9.144 4.156c-3.566 1.621-6.938 3.553-10.12 5.751l1.128 1.128c.873.873 1.353 2.034 1.353 3.268s-.48 2.395-1.354 3.268l-1.232 1.232 2.257 2.257c.857.857 1.329 1.996 1.329 3.207 0 2.501-2.035 4.536-4.536 4.536-1.211 0-2.351-.472-3.207-1.329l-7.387-7.387c-1.955 1.736-4.5 2.716-7.133 2.716-5.921 0-10.737-4.816-10.737-10.737 0-2.987 1.259-5.863 3.454-7.89 6.449-5.952 11.561-13.022 15.192-21.012zm4.995 28.694-12.696-12.696c-1.08 1.299-2.204 2.566-3.386 3.786l12.296 12.296c1.221-1.181 2.487-2.306 3.786-3.386zm-6.484 6.134c.42-.455.859-.887 1.289-1.329l-12.306-12.306c-.442.431-.874.869-1.329 1.289-1.787 1.649-2.811 3.989-2.811 6.42 0 4.818 3.919 8.737 8.737 8.737 2.431 0 4.771-1.024 6.42-2.811zm13.1 4.482-7.347-7.347c-1.251 1.129-2.458 2.314-3.627 3.545l7.388 7.388c.479.479 1.116.743 1.793.743 1.398 0 2.536-1.138 2.536-2.536 0-.677-.264-1.314-.743-1.793zm-2.393-11.393c-1.178.869-2.321 1.784-3.439 2.733l3.575 3.575 1.232-1.232c.496-.496.768-1.154.768-1.854s-.272-1.358-.768-1.854zm10.582-32.247 5.523 5.523 2.7-3.471-4.751-4.751zm-15.446-8.202c0 .488.19.947.536 1.293l27.343 27.343c.345.345.804.535 1.292.535 1.009 0 1.829-.82 1.829-1.829 0-.488-.19-.947-.536-1.293l-27.342-27.342c-.346-.346-.805-.536-1.293-.536-1.009 0-1.829.82-1.829 1.829zm-2.533 13.359c-2.221 4.887-4.992 9.431-8.257 13.607l12.995 12.995c4.176-3.265 8.72-6.036 13.607-8.257l8.461-3.846-22.96-22.96z" fill="url(#SVGID_1_)"/></svg>